<svg xmlns="http://www.w3.org/2000/svg" viewBox="0 0 511 144.36"><defs><style>.cls-1{fill:#fff;}</style></defs><g id="Layer_2" data-name="Layer 2"><g id="Layer_1-2" data-name="Layer 1"><path class="cls-1" d="M159.83,142.48V59.77h20.56l1.83,11.77h1.07a36.67,36.67,0,0,1,7-7.38,27.68,27.68,0,0,1,9-4.71,35.74,35.74,0,0,1,10.66-1.56,30.22,30.22,0,0,1,14.7,3.29,21.71,21.71,0,0,1,9.21,9.89q3.19,6.59,3.2,16.79v54.62h-25v-51a18.1,18.1,0,0,0-.84-5.88,12.08,12.08,0,0,0-2.36-4.16,8.72,8.72,0,0,0-3.8-2.51,15.79,15.79,0,0,0-5.18-.79,14.23,14.23,0,0,0-7.77,2.12,15.63,15.63,0,0,0-5.33,5.65,16.56,16.56,0,0,0-2,8.24v48.34Z"/><path class="cls-1" d="M252.17,48.63V28.85h25V48.63Zm0,93.85V59.77h25v82.71Z"/><path class="cls-1" d="M292.33,142.48V59.77h20.56l1.83,11.77h1.07a31.09,31.09,0,0,1,6.62-7.38A27.4,27.4,0,0,1,331,59.45a31.76,31.76,0,0,1,10.05-1.56,27.37,27.37,0,0,1,14,3.37,21.49,21.49,0,0,1,8.83,10.28H365a31.31,31.31,0,0,1,6.62-7.38,27.31,27.31,0,0,1,8.68-4.71,32.1,32.1,0,0,1,10-1.56,28.84,28.84,0,0,1,14.16,3.21,21.3,21.3,0,0,1,8.91,9.73q3.12,6.53,3.13,16.56v55.09h-25V91.31a20.09,20.09,0,0,0-.76-5.88,11.79,11.79,0,0,0-2.14-4.08,8,8,0,0,0-3.5-2.43,13,13,0,0,0-4.57-.79,12.33,12.33,0,0,0-7.08,2.12,13.92,13.92,0,0,0-4.8,5.65A19,19,0,0,0,367,94.14v48.34H342V91.31a19.76,19.76,0,0,0-.76-5.88,12,12,0,0,0-2.13-4.08,8.12,8.12,0,0,0-3.51-2.43,12.93,12.93,0,0,0-4.56-.79,12.34,12.34,0,0,0-7.09,2.12,14.48,14.48,0,0,0-4.87,5.65,18.28,18.28,0,0,0-1.75,8.24v48.34Z"/><path class="cls-1" d="M471.25,144.36q-13.71,0-23.3-4.63a32.12,32.12,0,0,1-14.7-14.2q-5.1-9.57-5.1-24.49,0-14.6,5-24.16a32.29,32.29,0,0,1,14.46-14.29q9.45-4.71,22.7-4.7,13.1,0,22.16,4.55a30.41,30.41,0,0,1,13.78,14Q511,85.82,511,100.73v5.49H453.43a30,30,0,0,0,1.83,11.15,14,14,0,0,0,5.63,6.9q3.81,2.36,10.21,2.36a21.58,21.58,0,0,0,6.7-.95,13.07,13.07,0,0,0,4.87-2.74,12.17,12.17,0,0,0,3.05-4.32,14.3,14.3,0,0,0,1.07-5.65H511a32.31,32.31,0,0,1-2.66,13.42,25.88,25.88,0,0,1-7.85,9.89,36.08,36.08,0,0,1-12.56,6A62.77,62.77,0,0,1,471.25,144.36ZM453.58,91.94h32a23.24,23.24,0,0,0-1-7.14,13.39,13.39,0,0,0-2.9-5.1,12.08,12.08,0,0,0-4.56-3.06,17.24,17.24,0,0,0-6.17-1,19.91,19.91,0,0,0-9.14,1.88,13.19,13.19,0,0,0-5.64,5.5A24.3,24.3,0,0,0,453.58,91.94Z"/><path class="cls-1" d="M113,2.15,0,142.48H28.31a6.53,6.53,0,0,0,5.08-2.16L103.74,53c3.11-3.86,11-2.2,11,2.31V138c0,2.46,2.66,4.46,5.94,4.46h25.72V4.46C146.43,2,143.77,0,140.49,0H118.12A6.55,6.55,0,0,0,113,2.15Z"/><path class="cls-1" d="M96.13,0H78.49a6.6,6.6,0,0,0-5,2.09L61.09,16.93c-2.47,3,.37,6.82,5,6.82H83.77a6.6,6.6,0,0,0,5-2.1L101.17,6.82C103.65,3.85,100.8,0,96.13,0Z"/></g></g></svg>
